<svg width="173" height="38" viewBox="0 0 173 38" fill="none" xmlns="http://www.w3.org/2000/svg">
<path d="M4.51911 21.6541L16.5275 26.6868L15.8904 28.4387L2.09832 22.5778V20.7304L15.8904 14.8695L16.5275 16.6214L4.51911 21.6541Z" fill="#D95323"/>
<path d="M30.737 29.8276V29.7639L28.2526 27.2476C27.9659 26.929 27.934 26.8653 27.934 26.4831V19.0615H29.0807C29.4629 19.0615 29.5585 19.0933 29.877 19.4118L33.2534 22.9793H33.3171V14.4747H33.2534L29.877 18.0422C29.5585 18.3607 29.4629 18.3926 29.0807 18.3926H27.934V8.67757C27.934 8.13607 27.9977 8.10422 28.4755 8.10422H30.4185C30.8963 8.10422 31.0237 8.19978 31.2785 8.58201L36.2157 15.6214H36.2794V7.43532H18.7924V7.49903L20.5443 9.7924C20.7672 10.0791 20.7991 10.1746 20.7991 10.6206V26.6424C20.7991 27.0883 20.7672 27.1839 20.5443 27.4705L18.7924 29.7639V29.8276H30.737ZM45.0752 18.0422C45.4574 17.4688 45.553 17.3096 45.8078 17.3096C45.9352 17.3096 45.9989 17.3414 46.2537 17.5644L49.2797 20.2719H49.3434L51.2227 15.1118C50.6812 14.2517 49.8212 13.6784 48.6745 13.6784C46.8589 13.6784 45.6804 15.2073 45.0752 17.5644V13.9332H37.1758V13.9969L38.3862 15.5896C38.6091 15.8762 38.641 15.9718 38.641 16.3859V27.4068C38.641 27.8209 38.6091 27.9165 38.3862 28.2031L37.1758 29.7639V29.8276H48.579V29.7639L45.6167 27.6935C45.1389 27.3431 45.0752 27.2157 45.0752 26.8335V18.0422ZM66.7566 21.5141C66.7884 21.2274 66.7884 21.0682 66.7884 20.8452C66.7884 15.1436 62.8387 13.6784 59.3031 13.6784C54.3978 13.6784 50.6074 16.1629 50.6074 21.96C50.6074 27.6298 54.7482 30.0824 59.0483 30.0824C62.998 30.0824 65.6736 28.2031 66.5654 24.0623L66.5017 24.0305C65.5143 25.7186 63.5395 26.4831 61.8194 26.4831C59.4942 26.4831 57.4238 25.2409 57.2964 21.5141H66.7566ZM59.1757 14.3155C60.0675 14.3155 60.9276 14.9207 60.9276 19.4437C60.9276 19.8896 60.9276 20.3993 60.8957 20.9089H57.2964C57.2964 15.4621 57.9653 14.3155 59.1757 14.3155ZM59.4305 7.43532L57.0734 12.7865L57.1371 12.8502L65.2276 7.49903V7.43532H59.4305ZM85.4239 6.47975L77.5245 7.43532V7.49903L78.7349 9.09165C78.9578 9.37832 78.9897 9.47388 78.9897 9.88796V15.8762C78.2252 14.3792 76.7919 13.6784 74.8807 13.6784C70.5806 13.6784 67.6502 17.0229 67.6502 21.8645C67.6502 27.4387 70.4851 30.0824 74.2755 30.0824C76.4097 30.0824 78.0023 29.0313 78.9897 26.9927V29.8276H86.921V29.7639L85.6787 28.2031C85.4558 27.9165 85.4239 27.8209 85.4239 27.4068V6.47975ZM77.3015 27.2157C75.6133 27.2157 74.4348 25.9735 74.4348 21.8008C74.4348 17.1185 76.0593 15.8444 77.5563 15.8444C78.1615 15.8444 78.7349 16.0673 78.9897 16.2266V26.5787C78.5756 26.9927 77.9386 27.2157 77.3015 27.2157ZM103.236 21.5141C103.268 21.2274 103.268 21.0682 103.268 20.8452C103.268 15.1436 99.3181 13.6784 95.7825 13.6784C90.8772 13.6784 87.0867 16.1629 87.0867 21.96C87.0867 27.6298 91.2276 30.0824 95.5276 30.0824C99.4774 30.0824 102.153 28.2031 103.045 24.0623L102.981 24.0305C101.994 25.7186 100.019 26.4831 98.2988 26.4831C95.9736 26.4831 93.9032 25.2409 93.7758 21.5141H103.236ZM95.6551 14.3155C96.5469 14.3155 97.4069 14.9207 97.4069 19.4437C97.4069 19.8896 97.4069 20.3993 97.3751 20.9089H93.7758C93.7758 15.4621 94.4447 14.3155 95.6551 14.3155ZM95.9099 7.43532L93.5528 12.7865L93.6165 12.8502L101.707 7.49903V7.43532H95.9099ZM111.564 18.0422C111.946 17.4688 112.042 17.3096 112.297 17.3096C112.424 17.3096 112.488 17.3414 112.742 17.5644L115.768 20.2719H115.832L117.711 15.1118C117.17 14.2517 116.31 13.6784 115.163 13.6784C113.348 13.6784 112.169 15.2073 111.564 17.5644V13.9332H103.665V13.9969L104.875 15.5896C105.098 15.8762 105.13 15.9718 105.13 16.3859V27.4068C105.13 27.8209 105.098 27.9165 104.875 28.2031L103.665 29.7639V29.8276H115.068V29.7639L112.105 27.6935C111.628 27.3431 111.564 27.2157 111.564 26.8335V18.0422ZM122.185 12.5317C123.81 12.5317 125.147 11.5761 125.147 9.88796C125.147 8.13607 123.81 7.1168 122.185 7.1168C120.624 7.1168 119.223 8.13607 119.223 9.88796C119.223 11.5761 120.624 12.5317 122.185 12.5317ZM125.402 13.9332H117.503V13.9969L118.713 15.5896C118.936 15.8762 118.968 15.9718 118.968 16.3859V27.4068C118.968 27.8209 118.936 27.9165 118.713 28.2031L117.503 29.7639V29.8276H126.899V29.7639L125.657 28.2031C125.434 27.9165 125.402 27.8209 125.402 27.4068V13.9332ZM135.071 30.0824C138.861 30.0824 141.314 27.9802 141.855 24.3808H141.792C141.059 25.5275 139.817 26.4194 138.192 26.4194C136.217 26.4194 134.051 25.0179 134.051 20.2082C134.051 16.1629 134.88 14.3155 136.281 14.3155H136.313C136.631 14.3155 136.663 14.3473 136.823 14.6658L139.594 20.6222H139.657L141.983 14.634C139.88 13.9651 138.097 13.6784 136.154 13.6784C131.79 13.6784 127.108 15.7807 127.108 22.0875C127.108 27.4068 130.93 30.0824 135.071 30.0824Z" fill="white"/>
<path d="M143.716 36.7203H141.614L152.476 5.88712H154.514L143.716 36.7203ZM155.199 16.6214L155.836 14.8695L169.628 20.7304V22.5778L155.836 28.4387L155.199 26.6868L167.208 21.6541L155.199 16.6214Z" fill="#D95323"/>
</svg>
