<svg width="41" height="41" viewBox="0 0 41 41" fill="none" xmlns="http://www.w3.org/2000/svg">
<path fill-rule="evenodd" clip-rule="evenodd" d="M35.3111 21.8918C34.7375 24.9628 33.2276 27.7898 30.9817 29.9977L28.6672 27.7224V10.6175H11.1483V28.1364H12.6742L10.2153 31.2041C7.72054 29.2717 5.88241 26.6392 4.94485 23.656C4.00729 20.6727 4.01461 17.4798 4.96584 14.5008C5.91707 11.5217 7.76725 8.89743 10.2709 6.97608C12.7745 5.05473 15.8133 3.92715 18.9839 3.74295C22.1546 3.55875 25.3073 4.32663 28.0237 5.94472C30.7401 7.56281 32.8918 9.95462 34.1933 12.8028C35.4949 15.6509 35.8847 18.8208 35.3111 21.8918Z" fill="#D95323"/>
<g clip-path="url(#clip0)">
<path d="M13.8027 21.235L5.30872 36.6303H22.2967L13.8027 21.235Z" fill="white"/>
<path d="M16.988 22.5263L21.9592 13.2719L34.5068 36.6303H24.5644L16.988 22.5263Z" fill="white"/>
</g>
<defs>
<clipPath id="clip0">
<rect width="29.1981" height="23.3585" fill="white" transform="translate(5.30872 13.2719)"/>
</clipPath>
</defs>
</svg>
