<svg width="213" height="41" viewBox="0 0 213 41" fill="none" xmlns="http://www.w3.org/2000/svg">
<path fill-rule="evenodd" clip-rule="evenodd" d="M35.3111 21.8918C34.7375 24.9628 33.2276 27.7898 30.9817 29.9977L28.6672 27.7224V10.6175H11.1483V28.1364H12.6742L10.2153 31.2041C7.72054 29.2717 5.88241 26.6392 4.94485 23.656C4.00729 20.6727 4.01461 17.4798 4.96584 14.5008C5.91707 11.5217 7.76725 8.89743 10.2709 6.97608C12.7745 5.05473 15.8133 3.92715 18.9839 3.74295C22.1546 3.55875 25.3073 4.32663 28.0237 5.94472C30.7401 7.56281 32.8918 9.95462 34.1933 12.8028C35.4949 15.6509 35.8847 18.8208 35.3111 21.8918Z" fill="#D95323"/>
<g clip-path="url(#clip0)">
<path d="M13.8027 21.235L5.30872 36.6303H22.2967L13.8027 21.235Z" fill="white"/>
<path d="M16.988 22.5263L21.9592 13.2719L34.5068 36.6303H24.5644L16.988 22.5263Z" fill="white"/>
</g>
<path d="M44.5191 22.6541L56.5275 27.6868L55.8904 29.4387L42.0983 23.5778V21.7304L55.8904 15.8695L56.5275 17.6214L44.5191 22.6541Z" fill="#D95323"/>
<path d="M70.737 30.8276V30.7639L68.2526 28.2476C67.9659 27.929 67.934 27.8653 67.934 27.4831V20.0615H69.0807C69.4629 20.0615 69.5585 20.0933 69.877 20.4118L73.2534 23.9793H73.3171V15.4747H73.2534L69.877 19.0422C69.5585 19.3607 69.4629 19.3926 69.0807 19.3926H67.934V9.67757C67.934 9.13607 67.9977 9.10422 68.4755 9.10422H70.4185C70.8963 9.10422 71.0237 9.19978 71.2785 9.58201L76.2157 16.6214H76.2794V8.43532H58.7924V8.49903L60.5443 10.7924C60.7672 11.0791 60.7991 11.1746 60.7991 11.6206V27.6424C60.7991 28.0883 60.7672 28.1839 60.5443 28.4705L58.7924 30.7639V30.8276H70.737ZM85.0752 19.0422C85.4574 18.4688 85.553 18.3096 85.8078 18.3096C85.9352 18.3096 85.9989 18.3414 86.2537 18.5644L89.2797 21.2719H89.3434L91.2227 16.1118C90.6812 15.2517 89.8212 14.6784 88.6745 14.6784C86.8589 14.6784 85.6804 16.2073 85.0752 18.5644V14.9332H77.1758V14.9969L78.3862 16.5896C78.6091 16.8762 78.641 16.9718 78.641 17.3859V28.4068C78.641 28.8209 78.6091 28.9165 78.3862 29.2031L77.1758 30.7639V30.8276H88.579V30.7639L85.6167 28.6935C85.1389 28.3431 85.0752 28.2157 85.0752 27.8335V19.0422ZM106.757 22.5141C106.788 22.2274 106.788 22.0682 106.788 21.8452C106.788 16.1436 102.839 14.6784 99.3031 14.6784C94.3978 14.6784 90.6074 17.1629 90.6074 22.96C90.6074 28.6298 94.7482 31.0824 99.0483 31.0824C102.998 31.0824 105.674 29.2031 106.565 25.0623L106.502 25.0305C105.514 26.7186 103.539 27.4831 101.819 27.4831C99.4942 27.4831 97.4238 26.2409 97.2964 22.5141H106.757ZM99.1757 15.3155C100.068 15.3155 100.928 15.9207 100.928 20.4437C100.928 20.8896 100.928 21.3993 100.896 21.9089H97.2964C97.2964 16.4621 97.9653 15.3155 99.1757 15.3155ZM99.4305 8.43532L97.0734 13.7865L97.1371 13.8502L105.228 8.49903V8.43532H99.4305ZM125.424 7.47975L117.524 8.43532V8.49903L118.735 10.0916C118.958 10.3783 118.99 10.4739 118.99 10.888V16.8762C118.225 15.3792 116.792 14.6784 114.881 14.6784C110.581 14.6784 107.65 18.0229 107.65 22.8645C107.65 28.4387 110.485 31.0824 114.276 31.0824C116.41 31.0824 118.002 30.0313 118.99 27.9927V30.8276H126.921V30.7639L125.679 29.2031C125.456 28.9165 125.424 28.8209 125.424 28.4068V7.47975ZM117.302 28.2157C115.613 28.2157 114.435 26.9735 114.435 22.8008C114.435 18.1185 116.059 16.8444 117.556 16.8444C118.162 16.8444 118.735 17.0673 118.99 17.2266V27.5787C118.576 27.9927 117.939 28.2157 117.302 28.2157ZM143.236 22.5141C143.268 22.2274 143.268 22.0682 143.268 21.8452C143.268 16.1436 139.318 14.6784 135.782 14.6784C130.877 14.6784 127.087 17.1629 127.087 22.96C127.087 28.6298 131.228 31.0824 135.528 31.0824C139.477 31.0824 142.153 29.2031 143.045 25.0623L142.981 25.0305C141.994 26.7186 140.019 27.4831 138.299 27.4831C135.974 27.4831 133.903 26.2409 133.776 22.5141H143.236ZM135.655 15.3155C136.547 15.3155 137.407 15.9207 137.407 20.4437C137.407 20.8896 137.407 21.3993 137.375 21.9089H133.776C133.776 16.4621 134.445 15.3155 135.655 15.3155ZM135.91 8.43532L133.553 13.7865L133.616 13.8502L141.707 8.49903V8.43532H135.91ZM151.564 19.0422C151.946 18.4688 152.042 18.3096 152.297 18.3096C152.424 18.3096 152.488 18.3414 152.742 18.5644L155.768 21.2719H155.832L157.711 16.1118C157.17 15.2517 156.31 14.6784 155.163 14.6784C153.348 14.6784 152.169 16.2073 151.564 18.5644V14.9332H143.665V14.9969L144.875 16.5896C145.098 16.8762 145.13 16.9718 145.13 17.3859V28.4068C145.13 28.8209 145.098 28.9165 144.875 29.2031L143.665 30.7639V30.8276H155.068V30.7639L152.105 28.6935C151.628 28.3431 151.564 28.2157 151.564 27.8335V19.0422ZM162.185 13.5317C163.81 13.5317 165.147 12.5761 165.147 10.888C165.147 9.13607 163.81 8.1168 162.185 8.1168C160.624 8.1168 159.223 9.13607 159.223 10.888C159.223 12.5761 160.624 13.5317 162.185 13.5317ZM165.402 14.9332H157.503V14.9969L158.713 16.5896C158.936 16.8762 158.968 16.9718 158.968 17.3859V28.4068C158.968 28.8209 158.936 28.9165 158.713 29.2031L157.503 30.7639V30.8276H166.899V30.7639L165.657 29.2031C165.434 28.9165 165.402 28.8209 165.402 28.4068V14.9332ZM175.071 31.0824C178.861 31.0824 181.314 28.9802 181.855 25.3808H181.792C181.059 26.5275 179.817 27.4194 178.192 27.4194C176.217 27.4194 174.051 26.0179 174.051 21.2082C174.051 17.1629 174.88 15.3155 176.281 15.3155H176.313C176.631 15.3155 176.663 15.3473 176.823 15.6658L179.594 21.6222H179.657L181.983 15.634C179.88 14.9651 178.097 14.6784 176.154 14.6784C171.79 14.6784 167.108 16.7807 167.108 23.0875C167.108 28.4068 170.93 31.0824 175.071 31.0824Z" fill="white"/>
<path d="M183.716 37.7203H181.614L192.476 6.88712H194.514L183.716 37.7203ZM195.199 17.6214L195.836 15.8695L209.628 21.7304V23.5778L195.836 29.4387L195.199 27.6868L207.208 22.6541L195.199 17.6214Z" fill="#D95323"/>
<defs>
<clipPath id="clip0">
<rect width="29.1981" height="23.3585" fill="white" transform="translate(5.30872 13.2719)"/>
</clipPath>
</defs>
</svg>
