<svg width="92" height="92" viewBox="0 0 92 92" fill="none" xmlns="http://www.w3.org/2000/svg">
<path fill-rule="evenodd" clip-rule="evenodd" d="M63.2173 28.8874C64.5127 33.8427 64.3095 39.0709 62.6336 43.9107L50.8537 39.8316C50.3158 33.1751 44.7432 27.9408 37.9481 27.9408C30.7971 27.9408 25 33.7379 25 40.8889C25 45.9945 27.955 50.4099 32.248 52.5181L29.6892 59.9076C24.8493 58.2317 20.6151 55.1582 17.5221 51.0758C14.429 46.9935 12.6159 42.0856 12.3122 36.9728C12.0084 31.86 13.2276 26.7719 15.8156 22.3521C18.4035 17.9322 22.244 14.379 26.8514 12.1417C31.4587 9.90453 36.626 9.08381 41.6998 9.78334C46.7736 10.4829 51.5261 12.6713 55.3561 16.0718C59.1862 19.4723 61.9219 23.9322 63.2173 28.8874Z" fill="#D95323"/>
<path d="M30.6667 38.3296L11.5 68.9963H49.8333L30.6667 38.3296Z" fill="#0D0705"/>
<path d="M40.3398 41.2248L51.7302 23L80.4802 69H57.6995L40.3398 41.2248Z" fill="#0D0705"/>
</svg>
