<svg width="361" height="92" viewBox="0 0 361 92" fill="none" xmlns="http://www.w3.org/2000/svg">
<path fill-rule="evenodd" clip-rule="evenodd" d="M63.2173 28.8874C64.5127 33.8427 64.3095 39.0709 62.6336 43.9107L50.8537 39.8316C50.3158 33.1751 44.7432 27.9408 37.9481 27.9408C30.7971 27.9408 25 33.7379 25 40.8889C25 45.9945 27.955 50.4099 32.248 52.5181L29.6892 59.9076C24.8493 58.2317 20.6151 55.1582 17.5221 51.0758C14.429 46.9935 12.6159 42.0856 12.3122 36.9728C12.0084 31.86 13.2276 26.7719 15.8156 22.3521C18.4035 17.9322 22.244 14.379 26.8514 12.1417C31.4587 9.90453 36.626 9.08381 41.6998 9.78334C46.7736 10.4829 51.5261 12.6713 55.3561 16.0718C59.1862 19.4723 61.9219 23.9322 63.2173 28.8874Z" fill="#D95323"/>
<path d="M30.6667 38.3296L11.5 68.9963H49.8333L30.6667 38.3296Z" fill="#0D0705"/>
<path d="M40.3398 41.2248L51.7302 23L80.4802 69H57.6995L40.3398 41.2248Z" fill="#0D0705"/>
<path d="M84 43.2931V43.3998L104.803 52.9477L105.176 51.8809L86.507 43.3464L105.176 34.812L104.803 33.7452L84 43.2931Z" fill="#27153E"/>
<path d="M130.236 60.5754V60.4687L126.076 56.2548C125.596 55.7214 125.542 55.6147 125.542 54.9746V42.5463H127.463C128.103 42.5463 128.263 42.5997 128.796 43.1331L134.45 49.1072H134.557V34.8653H134.45L128.796 40.8394C128.263 41.3728 128.103 41.4262 127.463 41.4262H125.542V25.1574C125.542 24.2506 125.649 24.1973 126.449 24.1973H129.703C130.503 24.1973 130.716 24.3573 131.143 24.9974L139.411 36.7856H139.517V23.0771H110.234V23.1838L113.167 27.0243C113.541 27.5044 113.594 27.6644 113.594 28.4111V55.2413C113.594 55.9881 113.541 56.1481 113.167 56.6282L110.234 60.4687V60.5754H130.236Z" fill="#27153E"/>
<path d="M154.175 40.8394C154.815 39.8793 154.975 39.6126 155.401 39.6126C155.615 39.6126 155.722 39.666 156.148 40.0393L161.216 44.5733H161.322L164.469 35.9321C163.563 34.4919 162.122 33.5318 160.202 33.5318C157.162 33.5318 155.188 36.0922 154.175 40.0393V33.9585H140.946V34.0652L142.973 36.7322C143.347 37.2123 143.4 37.3723 143.4 38.0657V56.5215C143.4 57.2149 143.347 57.3749 142.973 57.855L140.946 60.4687V60.5754H160.042V60.4687L155.081 57.0016C154.281 56.4148 154.175 56.2015 154.175 55.5614V40.8394Z" fill="#27153E"/>
<path d="M190.41 46.6535C190.463 46.1735 190.463 45.9068 190.463 45.5334C190.463 35.9855 183.849 33.5318 177.928 33.5318C169.714 33.5318 163.367 37.6924 163.367 47.4003C163.367 56.8949 170.301 61.0021 177.502 61.0021C184.116 61.0021 188.596 57.855 190.09 50.9208L189.983 50.8674C188.33 53.6945 185.023 54.9746 182.142 54.9746C178.248 54.9746 174.781 52.8944 174.568 46.6535H190.41ZM177.715 34.5986C179.209 34.5986 180.649 35.6121 180.649 43.1864C180.649 43.9332 180.649 44.7866 180.595 45.6401H174.568C174.568 36.5189 175.688 34.5986 177.715 34.5986ZM178.142 23.0771L174.195 32.0383L174.301 32.145L187.85 23.1838V23.0771H178.142Z" fill="#27153E"/>
<path d="M221.598 21.4769L208.37 23.0771V23.1838L210.397 25.8508C210.77 26.3309 210.823 26.4909 210.823 27.1843V37.2123C209.543 34.7053 207.143 33.5318 203.942 33.5318C196.742 33.5318 191.834 39.1326 191.834 47.2403C191.834 56.5748 196.581 61.0021 202.929 61.0021C206.503 61.0021 209.17 59.2419 210.823 55.8281V60.5754H224.105V60.4687L222.025 57.855C221.651 57.3749 221.598 57.2149 221.598 56.5215V21.4769ZM207.996 56.2015C205.169 56.2015 203.196 54.1212 203.196 47.1336C203.196 39.2926 205.916 37.159 208.423 37.159C209.437 37.159 210.397 37.5323 210.823 37.799V55.1346C210.13 55.8281 209.063 56.2015 207.996 56.2015Z" fill="#27153E"/>
<path d="M251.354 46.6535C251.407 46.1735 251.407 45.9068 251.407 45.5334C251.407 35.9855 244.793 33.5318 238.872 33.5318C230.658 33.5318 224.31 37.6924 224.31 47.4003C224.31 56.8949 231.245 61.0021 238.446 61.0021C245.06 61.0021 249.54 57.855 251.034 50.9208L250.927 50.8674C249.274 53.6945 245.967 54.9746 243.086 54.9746C239.192 54.9746 235.725 52.8944 235.512 46.6535H251.354ZM238.659 34.5986C240.152 34.5986 241.593 35.6121 241.593 43.1864C241.593 43.9332 241.593 44.7866 241.539 45.6401H235.512C235.512 36.5189 236.632 34.5986 238.659 34.5986ZM239.086 23.0771L235.138 32.0383L235.245 32.145L248.794 23.1838V23.0771H239.086Z" fill="#27153E"/>
<path d="M265.228 40.8394C265.868 39.8793 266.028 39.6126 266.454 39.6126C266.668 39.6126 266.774 39.666 267.201 40.0393L272.269 44.5733H272.375L275.522 35.9321C274.615 34.4919 273.175 33.5318 271.255 33.5318C268.215 33.5318 266.241 36.0922 265.228 40.0393V33.9585H251.999V34.0652L254.026 36.7322C254.4 37.2123 254.453 37.3723 254.453 38.0657V56.5215C254.453 57.2149 254.4 57.3749 254.026 57.855L251.999 60.4687V60.5754H271.095V60.4687L266.134 57.0016C265.334 56.4148 265.228 56.2015 265.228 55.5614V40.8394Z" fill="#27153E"/>
<path d="M282.941 31.6116C285.662 31.6116 287.902 30.0114 287.902 27.1843C287.902 24.2506 285.662 22.5437 282.941 22.5437C280.328 22.5437 277.981 24.2506 277.981 27.1843C277.981 30.0114 280.328 31.6116 282.941 31.6116ZM288.329 33.9585H275.1V34.0652L277.127 36.7322C277.501 37.2123 277.554 37.3723 277.554 38.0657V56.5215C277.554 57.2149 277.501 57.3749 277.127 57.855L275.1 60.4687V60.5754H290.836V60.4687L288.755 57.855C288.382 57.3749 288.329 57.2149 288.329 56.5215V33.9585Z" fill="#27153E"/>
<path d="M304.447 61.0021C310.795 61.0021 314.902 57.4816 315.809 51.4542H315.702C314.475 53.3744 312.395 54.8679 309.675 54.8679C306.368 54.8679 302.74 52.521 302.74 44.4666C302.74 37.6924 304.127 34.5986 306.474 34.5986H306.528C307.061 34.5986 307.114 34.652 307.381 35.1854L312.022 45.16H312.128L316.022 35.132C312.502 34.0119 309.515 33.5318 306.261 33.5318C298.953 33.5318 291.112 37.0523 291.112 47.6137C291.112 56.5215 297.513 61.0021 304.447 61.0021Z" fill="#27153E"/>
<path d="M333.279 21.5302L332.212 21.2102L316.317 68.4697L317.437 68.7898L333.279 21.5302Z" fill="#27153E"/>
<path d="M339.555 33.7452L339.182 34.812L357.851 43.3464L339.182 51.8809L339.555 52.9477L360.358 43.3998V43.2931L339.555 33.7452Z" fill="#27153E"/>
</svg>
