<svg width="277" height="58" viewBox="0 0 277 58" fill="none" xmlns="http://www.w3.org/2000/svg">
<path d="M0 32.2931V32.3998L20.8027 41.9477L21.1761 40.8809L2.50699 32.3464L21.1761 23.812L20.8027 22.7452L0 32.2931Z" fill="#27153E"/>
<path d="M46.2363 49.5754V49.4687L42.0757 45.2548C41.5957 44.7214 41.5423 44.6147 41.5423 43.9746V31.5463H43.4626C44.1027 31.5463 44.2627 31.5997 44.7961 32.1331L50.4502 38.1072H50.5569V23.8653H50.4502L44.7961 29.8394C44.2627 30.3728 44.1027 30.4262 43.4626 30.4262H41.5423V14.1574C41.5423 13.2506 41.649 13.1973 42.4491 13.1973H45.7029C46.503 13.1973 46.7163 13.3573 47.1431 13.9974L55.4108 25.7856H55.5175V12.0771H26.2337V12.1838L29.1674 16.0243C29.5408 16.5044 29.5941 16.6644 29.5941 17.4111V44.2413C29.5941 44.9881 29.5408 45.1481 29.1674 45.6282L26.2337 49.4687V49.5754H46.2363Z" fill="#27153E"/>
<path d="M70.1746 29.8394C70.8147 28.8793 70.9748 28.6126 71.4015 28.6126C71.6148 28.6126 71.7215 28.666 72.1482 29.0393L77.2156 33.5733H77.3223L80.4693 24.9321C79.5625 23.4919 78.1224 22.5318 76.2021 22.5318C73.1617 22.5318 71.1881 25.0922 70.1746 29.0393V22.9585H56.9462V23.0652L58.9732 25.7322C59.3466 26.2123 59.3999 26.3723 59.3999 27.0657V45.5215C59.3999 46.2149 59.3466 46.3749 58.9732 46.855L56.9462 49.4687V49.5754H76.0421V49.4687L71.0814 46.0016C70.2813 45.4148 70.1746 45.2015 70.1746 44.5614V29.8394Z" fill="#27153E"/>
<path d="M106.41 35.6535C106.463 35.1735 106.463 34.9068 106.463 34.5334C106.463 24.9855 99.8492 22.5318 93.9284 22.5318C85.714 22.5318 79.3665 26.6924 79.3665 36.4003C79.3665 45.8949 86.3007 50.0021 93.5017 50.0021C100.116 50.0021 104.596 46.855 106.09 39.9208L105.983 39.8674C104.33 42.6945 101.023 43.9746 98.1423 43.9746C94.2484 43.9746 90.7813 41.8944 90.568 35.6535H106.41ZM93.715 23.5986C95.2086 23.5986 96.6488 24.6121 96.6488 32.1864C96.6488 32.9332 96.6488 33.7866 96.5954 34.6401H90.568C90.568 25.5189 91.6881 23.5986 93.715 23.5986ZM94.1418 12.0771L90.1946 21.0383L90.3013 21.145L103.85 12.1838V12.0771H94.1418Z" fill="#27153E"/>
<path d="M137.598 10.4769L124.37 12.0771V12.1838L126.397 14.8508C126.77 15.3309 126.823 15.4909 126.823 16.1843V26.2123C125.543 23.7053 123.143 22.5318 119.942 22.5318C112.742 22.5318 107.834 28.1326 107.834 36.2403C107.834 45.5748 112.581 50.0021 118.929 50.0021C122.503 50.0021 125.17 48.2419 126.823 44.8281V49.5754H140.105V49.4687L138.025 46.855C137.651 46.3749 137.598 46.2149 137.598 45.5215V10.4769ZM123.996 45.2015C121.169 45.2015 119.196 43.1212 119.196 36.1336C119.196 28.2926 121.916 26.159 124.423 26.159C125.437 26.159 126.397 26.5323 126.823 26.799V44.1346C126.13 44.8281 125.063 45.2015 123.996 45.2015Z" fill="#27153E"/>
<path d="M167.354 35.6535C167.407 35.1735 167.407 34.9068 167.407 34.5334C167.407 24.9855 160.793 22.5318 154.872 22.5318C146.658 22.5318 140.31 26.6924 140.31 36.4003C140.31 45.8949 147.245 50.0021 154.446 50.0021C161.06 50.0021 165.54 46.855 167.034 39.9208L166.927 39.8674C165.274 42.6945 161.967 43.9746 159.086 43.9746C155.192 43.9746 151.725 41.8944 151.512 35.6535H167.354ZM154.659 23.5986C156.152 23.5986 157.593 24.6121 157.593 32.1864C157.593 32.9332 157.593 33.7866 157.539 34.6401H151.512C151.512 25.5189 152.632 23.5986 154.659 23.5986ZM155.086 12.0771L151.138 21.0383L151.245 21.145L164.794 12.1838V12.0771H155.086Z" fill="#27153E"/>
<path d="M181.228 29.8394C181.868 28.8793 182.028 28.6126 182.454 28.6126C182.668 28.6126 182.774 28.666 183.201 29.0393L188.269 33.5733H188.375L191.522 24.9321C190.615 23.4919 189.175 22.5318 187.255 22.5318C184.215 22.5318 182.241 25.0922 181.228 29.0393V22.9585H167.999V23.0652L170.026 25.7322C170.4 26.2123 170.453 26.3723 170.453 27.0657V45.5215C170.453 46.2149 170.4 46.3749 170.026 46.855L167.999 49.4687V49.5754H187.095V49.4687L182.134 46.0016C181.334 45.4148 181.228 45.2015 181.228 44.5614V29.8394Z" fill="#27153E"/>
<path d="M198.941 20.6116C201.662 20.6116 203.902 19.0114 203.902 16.1843C203.902 13.2506 201.662 11.5437 198.941 11.5437C196.328 11.5437 193.981 13.2506 193.981 16.1843C193.981 19.0114 196.328 20.6116 198.941 20.6116ZM204.329 22.9585H191.1V23.0652L193.127 25.7322C193.501 26.2123 193.554 26.3723 193.554 27.0657V45.5215C193.554 46.2149 193.501 46.3749 193.127 46.855L191.1 49.4687V49.5754H206.836V49.4687L204.755 46.855C204.382 46.3749 204.329 46.2149 204.329 45.5215V22.9585Z" fill="#27153E"/>
<path d="M220.447 50.0021C226.795 50.0021 230.902 46.4816 231.809 40.4542H231.702C230.475 42.3744 228.395 43.8679 225.675 43.8679C222.368 43.8679 218.74 41.521 218.74 33.4666C218.74 26.6924 220.127 23.5986 222.474 23.5986H222.528C223.061 23.5986 223.114 23.652 223.381 24.1854L228.022 34.16H228.128L232.022 24.132C228.502 23.0119 225.515 22.5318 222.261 22.5318C214.953 22.5318 207.112 26.0523 207.112 36.6137C207.112 45.5215 213.513 50.0021 220.447 50.0021Z" fill="#27153E"/>
<path d="M249.279 10.5302L248.212 10.2102L232.317 57.4697L233.437 57.7898L249.279 10.5302Z" fill="#27153E"/>
<path d="M255.555 22.7452L255.182 23.812L273.851 32.3464L255.182 40.8809L255.555 41.9477L276.358 32.3998V32.2931L255.555 22.7452Z" fill="#27153E"/>
</svg>
